
<svg xmlns="http://www.w3.org/2000/svg">
  <symbol id="Funcraft" viewBox="0 0 115 30">
    <path d="M4.92188 24H1.55859V7.19531H13.3242V10.5586H4.92188V13.9219H9.96094V17.2852H4.92188V24ZM23.1445 22.5352C22.8867 22.7695 22.6094 22.9922 22.3125 23.2031C22.0234 23.4062 21.7188 23.5859 21.3984 23.7422C21.0781 23.8906 20.7461 24.0078 20.4023 24.0938C20.0664 24.1875 19.7227 24.2344 19.3711 24.2344C18.5977 24.2344 17.8711 24.0977 17.1914 23.8242C16.5117 23.5508 15.9141 23.1641 15.3984 22.6641C14.8906 22.1562 14.4883 21.543 14.1914 20.8242C13.9023 20.0977 13.7578 19.2852 13.7578 18.3867V11.4492H16.9453V18.3867C16.9453 18.8086 17.0078 19.1875 17.1328 19.5234C17.2656 19.8516 17.4414 20.1289 17.6602 20.3555C17.8789 20.582 18.1328 20.7539 18.4219 20.8711C18.7188 20.9883 19.0352 21.0469 19.3711 21.0469C19.6992 21.0469 20.0078 20.9727 20.2969 20.8242C20.5938 20.668 20.8516 20.4648 21.0703 20.2148C21.2891 19.9648 21.4609 19.6836 21.5859 19.3711C21.7109 19.0508 21.7734 18.7227 21.7734 18.3867V11.4492H24.9727V24H24.1992L23.1445 22.5352ZM30.6211 24H27.4219V11.4492H28.1953L29.25 12.668C29.7656 12.1992 30.3477 11.8398 30.9961 11.5898C31.6523 11.332 32.3359 11.2031 33.0469 11.2031C33.8125 11.2031 34.5352 11.3516 35.2148 11.6484C35.8945 11.9375 36.4883 12.3398 36.9961 12.8555C37.5039 13.3633 37.9023 13.9609 38.1914 14.6484C38.4883 15.3281 38.6367 16.0547 38.6367 16.8281V24H35.4375V16.8281C35.4375 16.5 35.375 16.1914 35.25 15.9023C35.125 15.6055 34.9531 15.3477 34.7344 15.1289C34.5156 14.9102 34.2617 14.7383 33.9727 14.6133C33.6836 14.4883 33.375 14.4258 33.0469 14.4258C32.7109 14.4258 32.3945 14.4883 32.0977 14.6133C31.8008 14.7383 31.543 14.9102 31.3242 15.1289C31.1055 15.3477 30.9336 15.6055 30.8086 15.9023C30.6836 16.1914 30.6211 16.5 30.6211 16.8281V24ZM54.6797 22.2773C53.8984 22.9492 53.0234 23.4648 52.0547 23.8242C51.0859 24.1836 50.082 24.3633 49.043 24.3633C48.2461 24.3633 47.4766 24.2578 46.7344 24.0469C46 23.8438 45.3086 23.5547 44.6602 23.1797C44.0195 22.7969 43.4336 22.3398 42.9023 21.8086C42.3711 21.2773 41.9141 20.6914 41.5312 20.0508C41.1562 19.4023 40.8633 18.7109 40.6523 17.9766C40.4492 17.2344 40.3477 16.4648 40.3477 15.668C40.3477 14.8711 40.4492 14.1016 40.6523 13.3594C40.8633 12.6172 41.1562 11.9258 41.5312 11.2852C41.9141 10.6367 42.3711 10.0469 42.9023 9.51562C43.4336 8.98438 44.0195 8.53125 44.6602 8.15625C45.3086 7.77344 46 7.48047 46.7344 7.27734C47.4766 7.06641 48.2461 6.96094 49.043 6.96094C50.082 6.96094 51.0859 7.14062 52.0547 7.5C53.0234 7.85156 53.8984 8.36719 54.6797 9.04688L52.8984 11.9766C52.4062 11.4453 51.8242 11.0391 51.1523 10.7578C50.4805 10.4688 49.7773 10.3242 49.043 10.3242C48.3008 10.3242 47.6055 10.4648 46.957 10.7461C46.3086 11.0273 45.7422 11.4102 45.2578 11.8945C44.7734 12.3711 44.3906 12.9375 44.1094 13.5938C43.8281 14.2422 43.6875 14.9336 43.6875 15.668C43.6875 16.4023 43.8281 17.0938 44.1094 17.7422C44.3906 18.3828 44.7734 18.9453 45.2578 19.4297C45.7422 19.9141 46.3086 20.2969 46.957 20.5781C47.6055 20.8594 48.3008 21 49.043 21C49.7773 21 50.4805 20.8594 51.1523 20.5781C51.8242 20.2891 52.4062 19.8789 52.8984 19.3477L54.6797 22.2773ZM59.4961 24H56.2969V11.4492H57.0703L58.125 12.9375C58.6406 12.4688 59.2266 12.1094 59.8828 11.8594C60.5391 11.6016 61.2188 11.4727 61.9219 11.4727H64.7461V14.6602H61.9219C61.5859 14.6602 61.2695 14.7227 60.9727 14.8477C60.6758 14.9727 60.418 15.1445 60.1992 15.3633C59.9805 15.582 59.8086 15.8398 59.6836 16.1367C59.5586 16.4336 59.4961 16.75 59.4961 17.0859V24ZM78.1523 24H77.3789L76.1367 22.2773C75.832 22.5508 75.5078 22.8086 75.1641 23.0508C74.8281 23.2852 74.4727 23.4922 74.0977 23.6719C73.7227 23.8438 73.3359 23.9805 72.9375 24.082C72.5469 24.1836 72.1484 24.2344 71.7422 24.2344C70.8594 24.2344 70.0273 24.0859 69.2461 23.7891C68.4727 23.4922 67.793 23.0625 67.207 22.5C66.6289 21.9297 66.1719 21.2344 65.8359 20.4141C65.5 19.5938 65.332 18.6602 65.332 17.6133C65.332 16.6367 65.5 15.7422 65.8359 14.9297C66.1719 14.1094 66.6289 13.4062 67.207 12.8203C67.793 12.2344 68.4727 11.7812 69.2461 11.4609C70.0273 11.1328 70.8594 10.9688 71.7422 10.9688C72.1484 10.9688 72.5508 11.0195 72.9492 11.1211C73.3477 11.2227 73.7344 11.3633 74.1094 11.543C74.4844 11.7227 74.8398 11.9336 75.1758 12.1758C75.5195 12.418 75.8398 12.6797 76.1367 12.9609L77.3789 11.4727H78.1523V24ZM74.9297 17.6133C74.9297 17.1758 74.8438 16.7539 74.6719 16.3477C74.5078 15.9336 74.2812 15.5703 73.9922 15.2578C73.7031 14.9375 73.3633 14.6836 72.9727 14.4961C72.5898 14.3008 72.1797 14.2031 71.7422 14.2031C71.3047 14.2031 70.8906 14.2773 70.5 14.4258C70.1172 14.5742 69.7812 14.793 69.4922 15.082C69.2109 15.3711 68.9883 15.7305 68.8242 16.1602C68.6602 16.582 68.5781 17.0664 68.5781 17.6133C68.5781 18.1602 68.6602 18.6484 68.8242 19.0781C68.9883 19.5 69.2109 19.8555 69.4922 20.1445C69.7812 20.4336 70.1172 20.6523 70.5 20.8008C70.8906 20.9492 71.3047 21.0234 71.7422 21.0234C72.1797 21.0234 72.5898 20.9297 72.9727 20.7422C73.3633 20.5469 73.7031 20.293 73.9922 19.9805C74.2812 19.6602 74.5078 19.2969 74.6719 18.8906C74.8438 18.4766 74.9297 18.0508 74.9297 17.6133ZM84.668 24H81.4688V14.6367H79.9102V11.4492H81.4688V10.8516C81.4688 10.0781 81.6133 9.35156 81.9023 8.67188C82.1992 7.99219 82.6016 7.40234 83.1094 6.90234C83.625 6.39453 84.2227 5.99609 84.9023 5.70703C85.582 5.41016 86.3086 5.26172 87.082 5.26172H89.4844V8.44922H87.082C86.7383 8.44922 86.418 8.51172 86.1211 8.63672C85.832 8.75391 85.5781 8.92188 85.3594 9.14062C85.1484 9.35156 84.9805 9.60547 84.8555 9.90234C84.7305 10.1914 84.668 10.5078 84.668 10.8516V11.4492H88.5938V14.6367H84.668V24ZM96.4102 24C95.6367 24 94.9102 23.8555 94.2305 23.5664C93.5508 23.2695 92.9531 22.8672 92.4375 22.3594C91.9297 21.8438 91.5273 21.2461 91.2305 20.5664C90.9414 19.8867 90.7969 19.1602 90.7969 18.3867V14.6602H89.2383V11.4727H90.7969V6.45703H93.9844V11.4727H98.8359V14.6602H93.9844V18.3867C93.9844 18.7227 94.0469 19.0391 94.1719 19.3359C94.2969 19.625 94.4688 19.8789 94.6875 20.0977C94.9062 20.3164 95.1641 20.4922 95.4609 20.625C95.7578 20.75 96.0742 20.8125 96.4102 20.8125H98.8359V24H96.4102Z" fill="#F4F4F4"/>
    <rect x="110.067" y="7.06152" width="4.96983" height="12.9843" rx="2.48491" transform="rotate(30.0013 110.067 7.06152)" fill="#FFAF5F"/>
    <rect x="106.492" width="4.96983" height="12.9843" rx="2.48491" transform="rotate(30.0013 106.492 0)" fill="#36C7D0"/>
  </symbol>
  <symbol id="FuncraftIcon" viewBox="0 0 21 30">
    <rect x="14.3894" y="10.0935" width="7.10375" height="18.5595" rx="3.55188" transform="rotate(30.0013 14.3894 10.0935)" fill="#FFAF5F"/>
    <rect x="9.28015" width="7.10375" height="18.5595" rx="3.55188" transform="rotate(30.0013 9.28015 0)" fill="#36C7D0"/>
  </symbol>
</svg>